P2
# Created by GIMP version 3.0.4 PNM plug-in
21 16
255
255
255
255
255
255
255
255
255
255
255
255
255
255
255
255
255
255
255
255
255
0
255
255
255
255
255
255
255
255
255
255
255
255
255
255
255
255
255
255
255
255
255
255
255
255
0
255
255
255
255
255
255
255
255
255
255
255
255
255
255
255
255
0
255
255
0
255
255
255
255
255
255
255
255
0
255
255
255
255
255
255
255
0
255
255
0
255
255
255
255
255
255
255
255
255
255
0
255
255
255
255
255
0
255
0
0
255
0
0
0
0
0
0
0
255
255
255
255
0
255
255
255
0
255
255
255
255
0
255
255
255
255
255
255
255
0
255
255
255
255
0
255
0
255
255
255
0
255
255
0
255
255
255
255
255
255
255
0
255
255
255
255
0
255
255
255
255
255
255
255
255
0
255
255
255
255
255
255
0
0
255
255
255
255
255
255
255
0
0
255
255
255
255
255
255
255
255
255
255
0
255
0
255
255
255
255
255
0
255
255
255
255
255
255
255
255
255
255
255
255
0
255
255
0
255
255
255
0
255
255
0
255
255
255
255
255
255
255
255
255
0
255
255
255
255
0
255
0
255
255
255
255
255
255
255
255
0
0
0
0
0
255
255
255
255
255
255
0
255
255
255
255
0
255
255
255
255
255
255
255
255
255
255
255
255
255
255
255
255
255
255
255
255
255
255
255
255
255
255
255
255
255
255
255
255
255
255
255
255
255
255
255
255
255
0
255
255
255
255
255
255
255
255
255
255
255
255
255
255
255
255
255
255
255
255
255
