P1
# Created by GIMP version 3.0.2 PNM plug-in
756 16
0000010001001000001000100000010000001100010000111000000100000100100000
0001000000000000000000000000000000000000100001110000000100000011110000
1111111000000100000111111000001110001111111000011100000011100000000000
0000000000000000000000001110000000000000000000100000111110000001111000
1111000001111110011111100001111100100000100100000010010000010010000000
1000001001000001000011100001111100000011100000111110000001111000111111
1001000001001000000010010000000001001000001001000001001111110011100100
0000001110000100000000000001000000000000100000000000000000000100000000
0000011000000000010000000100010010000001000000000000000000000000000000
0000000000000000000000000000000001000000000000000000000000000000000000
0000000000000000000000001100100110000000000000000000000000000100010010
0000100010000011110001001001000100010000010000100001000010010010000000
0000000000000000000000000100001000100000110000010000100000000010000010
0000010000000001000000000000100010001000010001000000000000000000000000
0000000001000100000001100000000010000010000100001000010010001000010000
0001000000001000000010000010010000001001000010001000000010000010010000
0100010001000100001000010001000010000100001000010000010000010000010010
0000001001000000000100100000100100000100000001001000001000000000100010
1000000000000010000000000010000000000000000000010000000000001000000000
0001000000010001001000000100000000000000000000000000000000000000000000
0000000000000000000100000000000000000000000000000000000000000000000000
0000000001000010000100000000000000000000000000010001001000001000100001
0100100100101000010001000001000100000010000111110000000000000000000000
0000000000010001000001000101000000000001000000010000001000001000000000
1000000000000010010000010010000010000000000000000000000000000000000000
1000011001100000010100001000001000100000001000010001000000010000000010
0000001000001001000000100100010000100000001100011001100001001000001001
0000010010000010001000001001000000000001000001000001000100000100010000
0000010001000100001000100000001000100000100000000010010001000000000000
0100000000001000000000000000000001000000000000100000000000010000000000
0000100000010000000000000000000000000000000000000000000000000000000000
0000010000000000000000000000000000000000000000000000000000000000010000
1000010000000000001011111010000001001001000011111111001001000000110010
0001000100001000010000001000000100000000000000000000000000000000001000
0100000100100100000000000100000010000001000000100000000010000000000000
1001000001001000001000000000000000000000000000000000000010001000000100
0001010000100000100100000000100001000100000001000000010000000010000010
0100000010010010000010000000110001100110000100100000100100000100100000
1000100000100100000000000100000100000100010000010000100000001000010001
0000100010000000100010000001000000001000000000000000000000000000000010
0000000000000000000100000000000010000000000001000000000000001000000100
0000000000000000000000000000000000000000000000000000000000000100000000
0000000000000000000000000000000000000000000000000001000010000100000000
0000010000010000000100100100000100010000100100000000010000010010000010
0010000000010000101000000000000000000000000000000000100001000001000001
0000000000010000010000000100000010111000010000000000000100001000100010
0000100000000000001000000000001000000000010000100111010000010100001000
0010010000000010000010010000000100000001000000001000001001000000100101
0000001000000010101010010100010010000010010000010010000010001000001001
0000000000010000010000010001000001000010001000100000101000000101000000
0100001000000100000000100000000000000000000000011110001111000000111100
0011110001111000111110000111100111110001000100100010010000111101110001
1111000001100001111000000111100101100001110001111110010000100100000100
1000000010010000010010000100111110000100001000010000000000001010001010
0000010000000000010001000001010000000001000000110000000000100000000100
0010100000001000000000000000000000000100000100100100000100000000000100
0011100000100010001100010001011100000000010000011100001000001001000100
0001000000000000010000000001000100100100100010001000100001000100000000
1000001001000000010000000100000000100000100100000010011000000010000000
1010101001010001001000001001000010001000001000100001000010000000000100
0001000001000010001000001000100010000010100000010100000001000010000000
1000000010000000000000000000000000000100100010000100000001000100100001
0000100000100010010000100100010010010001000010001000100100001000100100
0100010000100010011000001000100001000001000010010000010010000000100010
0010001000010000001000100000000000100000000000100101001000000100000000
0001000100000011100000001000000101000000000010000000010001000100000010
0000000000000000000000010000010010010000010000000000100000000100001000
1000000000100110001000000001000010001000010001100100010000100001111111
0000100000001000010100010010001000100011111000010000000010000010011111
0001111000010000000011111110010000001001010000001000000010010010010010
0100100000100111110000100000100011111000000111000000010000010000010000
1000100000100010001000000100000000100000001000001000000010000000100000
0000000000000000000000010010000100100000001000010010000100001000010000
1001000010010001001010000100001000100010010000100100001001000010010000
1001000001000000000100000100001000100010001000100010001000100001000100
0001000100000000000001000110010010001000100000010000000000010001000000
0101000001000000100010000000001000000001000000000000001000000000000000
0000000010000001000001000001000000000100000000001001000010000000001001
0000010000001000010000010000111010000000000100000000000000000100000100
0001010001010000100010001000010001000000001000001001000000010000000100
0111001000001001000000100100100000100000001001001001001001001000001001
0000000010000010001001000000000010000001000001000001000010001000000101
0101000000101000000010000000100000100000000100000010000000000000000000
0000011111001000010010000000100001001000110000100001000010010000100100
0100110000010000100010001001000010010000100100001001000010010000001000
0000010000010000100010001000010010010000010100000100010000010000100000
0000001000100110001001010010000000000000000001000100000001001000010000
0010001001000000100000000100000000000111111100000011111110000000100000
0100000100000100000000100000000000100111111100000000100100000100000010
0001000001000000001000000000100000000000000000001000010000010010010100
0010001000100000100100000000100000100100000001000000010000010010000010
0100000010010001000010000000100000100100010100100000100100000000100000
1000100010000000000100000100000100000100000101000000010101010000001010
0000001000000100000010000000010000001000000000000000000000001000010010
0001001000000010000100111100000010000100001001000010010001001010000100
0010001000100100001001000010010000100100001001000000011000000100000100
0010001000100001010101000000100000010001000010000001000010000100000000
0000101000101000000000000000011111111000000100100010011000100001010000
0001000000100000000000000010000000000000000000000100000001000001000001
0000000100000000000010000000100000000010010000010000001000010000010000
0001000000000001000001111111000001000000000000100111100000111110001000
0010010000000010000100010000000100000001000001001000001001000000100100
0100001000000010000010010001010010000010010000000010000010001000100000
0000010000010000010000010000010100000001010101000001000100000010000001
0000001000000000100000100000000000000000000000100001001000010010000000
1000010010000000001000010000100100001001000100100100010000100010001001
0000100100001001000010010000100100000000010000010000010000100001010000
0101010100000101000000101000010000000100001000010000000000000100000100
0000000000000000100010000010010100001010010010000010000000010000001000
0000000000001000000000000000000000010000000100000100000100000010000000
0000001000000010000000001001000001000001000001000001000000010000000000
0010000000000000001000000000000010000000000100000100100000100010000000
1000010001000000010000000010000100100000100100000010010000100010000000
1000001001000011001000001001000000001011001000100001000000000100000100
0001000001000001010000000101010100000100010000001000001000000010000000
0010000010000000000000000000000010000100100001001000000010000100100000
0000100000100010010000100100010010010001000010001000100100001001000010
0100001001000010010000000000100001000001000010000101000001010101000010
0010000010100001000000010000100001000000000000101111101000000100000000
0010001000000111100001001001000100001000000000100001000000000000000010
0000010000000000010010000000001000100000010000010000000010000100000000
1000100001000010001000000100000010001000000010000100010000010000000000
0001000000010000000110001100010000010010000100001000010010001000010000
0001000000001000010010000010010000010001000010001000000010000010010000
1100010001000100000000010010100010000100010000100000010000001000100000
0010000000001000100000100000100000100000100000001000000000010000100000
0000000000000000001000010010001000010000000100010010000000001000000111
1001000010010001001000100100001000100010010000100010010001000100001000
1001000001000100000100000100001000001000000010001000001000100000010000
1000000001000010000100000000000000000000000000010000000000100010000000
0100000100011000001111010000000001001000000000000000000000000100000000
0001001000000000011100001111111001111111000111100000000010000111100000
0111000000010000000111000001110000010001000000100000000000100000000100
0000000111000001000001001111100000011110001111000001111110010000000001
1110001000001001001110000100000100111111001000001001000001000011100001
0000000000111100001000001000111100000001000000011100000000100000000010
0010000010000010000010000011111100111000000001001110000000000000000000
0000011111001111000000111100001111000111100000100000000010010000100100
0100100010001100100010001001000010000110000111100000011110010000001110
0000001110001111100000100000001000100001000001000001000011111000001100
1001100000000000000000000000000000000000000000000000000000000000000000
0000000000000000000000000000000000000000000000010000000000000000000000
0000000000000000000000000000000000000000000000000000000000000000000000
0000000000000000000000000100000000000000000000000000000000000000000000
0000000000000000000000000000000000000000000000000000000000000000000000
0000000000000000000000000000000000000000000000000000000000000000000001
1100000000000000000000000000000000000000000000000000000000000000000000
0000000000000000000000000000000000000000000000111111100000000000000000
0000000000000000000000000000000000000000001000000000000001000000000000
0000000000000000000000000000010000000000001000000000000000000000000000
0000000000000000000000000000000000000100000000000000000000000000000000
0000000000000000000000000000000000000000000000000000000000000000000000
0000000000000000000000000000000010000000000000000000000000000000000000
0000000000000000000000000000000000000000000000000000000000000000000000
0000000000100000000000000000000000000000000000000000000000000000000000
0000000000000000000000000000000000000000000000000000000000000000000000
0000000000000000000000000000000000000000000000000000000000000000000000
0000000000000000000000000000000000000000000000000000000000000000000000
0000000000000000000000000000000000000000000000000000000000000000000000
0000000000000000000000000001000000000000000100000000000000000000000000
0000000000000001000000000000100000000000000000000000000000000000000000
0000000000000000000000010000000000000000000000000000000000000000000000
0000000000000000000000000000000000000000000000000000000000000000000000
0000000000000000001000000000000000000000000000000000000000000000000000
0000000000000000000000000000000000000000000000000000000000000000001000
0000000000000000000000000000000000000000000000000000000000000000000000
0000000000000000000000000000000000000000000000000000000000000000000000
0000000000000000000000000000000000000000000000000000000000000000000000
0000000000000000000000000000000000000000000000000000000000000000000000
0000000000000000000000000000000000000000000000000000000000000000000000
0000000000111000000000000001100000000000000000000000000000000000000000
0100000000000010000000000000000000000000000000000000000000000000000000
00000001100000000000000000000000000000000000000000000000