P1
# Created by GIMP version 3.0.4 PNM plug-in
964 16
0000000100001001000000100010000000100000001100010000011100000001000000
1000100000000010000000000000000000000000000000000000000010000011100000
0001000000011110000011111110000000100000011111100000011100001111111000
0011100000001110000000000000000000000000000000000000000011100000000000
0000000000100000011111000000011110000111100000011111100011111100000111
1100010000010001000000010001000001000100000000100000100010000010000011
1000001111100000001110000001111100000001111000011111110001000001000100
0000010001000000000100010000010001000001000111111000111000100000000011
1000001000000000000000100000000000000100000000000000000000001000000000
0000001100000000000010000000010000100010000000100000000000000000000000
0000000000000000000000000000000000000000000000001000000000000000000000
0000000000000000000000000000000000000000000000110001000110000000000000
0000000000000000000000000000000000000000000000000000000000000000000000
0000000000000000000000000000000000000000000000000000000000000100001001
0000001000100000011110000100100100001000100000010000010000010000010010
0100000000000000000000000000000000000001000001000100000011000000100001
0000000000100000010000000100000000001000000000000010000100010000010001
0000000000000000000000000000000000000001000100000000110000000000100000
0100001000001000010001000100000100000000100000000010000000010000010001
0000000100010000100001000000001000001000100000100001000100001000010000
0100010000010000100000100001000000100000010000010001000000010001000000
0001000100000100010000010000000010001000000100000000001000010100000000
0000000100000000000001000000000000000000000010000000000000010000000000
0000100000000100001000100000001000000000000000000000000000000000000000
0000000000000000000000000000000010000000000000000000000000000000000000
0000000000000000000000000000010000010000010000000000000000000000000000
0000000000000000000000000000000000000000000000000000000000000000000000
0000000000000000000000000000000000000000000001000010010000001000100000
1010010001001010000010001000000100001000000010000011111000000000000000
0000000000000000000000010000100000100001010000000000001000000001000000
0100000010000000000100000000000000100010000010001000001000000000000000
0000000000000000000000000000100000110011000000010100000100000100001000
0000010000100001000000001000000000100000000100000100010000000100010001
0000010000000011000110001100001000100000100010000010001000001000010000
0100010000000000001000000100000100001000001000010000000001000010001000
0010001000000001000010000001000000000010001000100000000000000010000000
0000010000000000000000000000100000000000000100000000000000100000000000
0000001000000010000000000000000000000000000000000000000000000000000000
0000000000000000100000000000000000000000000000000000000000000000000000
0000000000000100000100000100000000000000101111101000000001100000000001
1111000000000001000000000000110000000000000001111000000000000000000001
1000000000111111000000000000010001001000001111111100010010000000110010
0000100010000010000010000000100000001000000000000000000000000000000000
0000001000001000001000100100000000000010000000100000001000000010000000
0001000000000000001000100000100010000010000000000000000000000000000000
0000000000001000010000001000000101000001000001000100000000010000100001
0000000010000000010000000001000001000100000001000100100000010000000011
0001100011000010001000001000100000100010000010000100000100010000000000
0010000001000001000010000010000010000000100000100010000010001000000001
0000100000001000000000100000000000000000000000000000000000010000000000
0000000000001000000000000001000000000000001000000000000000001000000010
0000000000000000000000000000000000000000000000000000000000000000000000
1000000000000000000000000000000000000000000000000000000000000000000100
0001000001000000000000000100000100000000101000000000010001000000000010
1000000000001010000000000000010010000000111111100000101000000000100001
0110000000000100010010000001000100000100100000000001000000100100000010
0001000000000100000101000000000000000000000000000000000000001000001000
0010000001000000000000100000010000000010000000101110000010000000000000
0100000100010000100000100000000000000001000000000000010000000000010000
0100111010000001010000010000010001000000000100000100010000000010000000
0100000000010000010001000000010001010000000100000000101010100010100010
0010000010001000001000100000100001000001000100000000000010000001000001
0000100000100000100010001000000101000000010100000000100000100000001000
0000001000000000000000000000000000011110000111100000001111000001111000
0111100001111100000111100011111000010000100010001000100000111101110000
1111100000011000001111000000011110001011000011110000111111000100001000
1000001000100000001000100000100010000100011111000001000001000001000000
0000000010100010100000010010000000000100010000000001000100000000001001
0000000000110100100000010000001000010011111100001000100001000000000100
0000000000010001000000101000000000010000000110000000000001000000000100
0001010000000010000000000000000000000000000100000010010010000001000000
0000001000001110000001000100001100010000101110000000000100000011100000
1000001000100001000000100000000000000010000000000100001001001001000010
0010000100001000010000000001000001000100000000100000000100000000010000
0100010000000100011000000001000000001010101000101000100010000010001000
0100001000001000010000100000100000000000100000010000010000010001000000
1000100010000001010000000101000000001000001000000001000000001000000000
0000000000000000000000010001000100000100000000100010001000010000010000
0010001000100001000100001000100100001000001000100010001000010000100100
0010001000001000100011000001000010000010000001000010001000001000100000
0010000100010000100001000000010000100000000000001000000000000010010100
1000001000111110000001000100000000100000100000111110001000000001010100
1000001001000100001000000001000010000100010000000001000000000000010001
0000000111000000001000000010100000000000010000000001000010001000000010
0000000000000000000000000001000000100100100000010000000000010000000001
0000010001000000000010001100010000000001000001000100000100011000100001
0000010000011111110000010000000010000010100010010000100010000111110000
0100000000010000010001111100001111000001000000000111111100010000000100
0101000000010000000010010010001001001000100000100011111000001000001000
0111110000000111000000001000000100000100000100010000001000100010000000
1000000000100000000100000010000000010000000010000000000000000000000000
0000000100010000100010000000010000100010000100000100000100001000100001
0001000010001010000010000010001000100010000100010000100010000100010000
1000100000010000000000100000010000100001000100001000100010000100010000
0100010000001000010000000000000001000011001000100010001000010000000010
0011110001111000010000000100001000000001000000100111001000010000101010
0001001111110000101000100010000000010000000000000100010000000010100000
0100000001000100000000000100000000010000000000000000100000000000000000
0000000000100000001000001000000100000000001000000000001000100001000000
0000100010000010000000100000100000100000111010000000000000100000000000
0000000010000001000000101000101000001000100001000010000100000000010000
0100010000000010000000010001110001000001000100000001000100100000010000
0000100100100010010010001000001000100000000010000010000100100000000000
1000000010000001000001000001000100000001010101000000010100000000100000
0001000000100000000010000000100000000000000000000000000001111100010000
1000100000000100001000100011000001000001000010001000010001000010001100
0000100000100010001000100001000100001000100001000100001000100000001000
0000001000000100001000010001000001001001000000101000000100010000001000
0010000000000000100001001100001001010010001000000000100010000000001000
1000000000100010000000001000010000000010001000000100100000101010100000
1101010000100000000000000000000001000100000000100100000100000001000100
1000000001000000000100000000000001111111000000001111111000000000100000
0010000010000001000000000100000000000010001111111000000000100010000010
0000001000001000001000000000100000000000010000000000000000000001000001
0000001001001010000010001000010000010001000000000100000100010000000010
0000000100000100010000010001000000010001000100000100000000100000100010
0010100010000010001000000000100000100001000100000000000100000010000001
0000010000001010000000010101010000000101000000001000000010000000100000
0000100000001000000000000000000000000000100001000100001000100000000100
0010001111000000010000010000100010000100010000100010100000100000100010
0010001000010001000010001000010001000010001000000001100000001000000100
0010000100010000010101010000000100000001000100000100000001000001000001
0000000000000010100010100001000000001000010000000100001111000111100010
0000000100001000000000100001000010101000011111100100000000100000100000
0000000000000001111111100000001001000010011000010000101000000000100000
0010000000000000000010000000000000000000000000010000000010000010000001
0000000010000000000000100000000100000000001000100000100000001000001000
0010000000010000000000000010000001111111000000100000000000000100111100
0000111110000100000100010000000001000010000100000000100000000100000100
0100000100010000000100010001000001000000001000001000100010100010000010
0010000000001000001000010001000000000001000000100000010000010000001010
0000000101010100000010001000000010000000100000001000000000010000001000
0000000000000000000000001000010001000010001000000001000010001000000000
0100000100001000100001000100001000100100001000001000100010001000010001
0000100010000100010000100010000000000100000010000001000010000010100000
0101010100000010100000001010000010000000010000010000010000000000000001
0000010000001000111110000010000010000000010001000000111110001000000100
0000001000001001000100000100000000100001000000010000000000000000000000
1000100000010010100000101001000100000100000000001000000010000000000000
0000100000000000000000000000000100000000100000100000010000000100000000
0000001000000001000000000010001000001000000100000010000010000000010000
0000000000010000000000000000010000000000000001000000000001000001000100
0001000010000000010000100001000000001000000000100001000100000100010000
0001000100001000010000000010000010001000011000100000100010000000001011
0010000100001000000000010000001000000100000100000010100000000101010100
0000100010000000100000010000000010000000000100000010000000000000000000
0000000010000100010000100010000000010000100010000000000100000010001000
1000010001000010001001000010000010001000100010000100010000100010000100
0100001000100000000000100000100000010000100000101000000101010100000100
0100000010100000100000000100000100000100000000000000101111101000000100
1000000000010001000000000100010000000000100100000000100111110000000100
0000100001111110010000010000000100000000010000000000001000100000001111
0000010010010000100001000000000001000001000000000000000000100000001000
0000000000100010000000000100010000000100000010000000001000010000000001
0000100001000001000100000001000000010001000000001000001000010000001000
0000000000001000000001000000001100011000010000010001000010000010000100
0100010000010000000010000000001000010001000001000100000010000100001000
0100000000100000100010000110000100010000100000000001001010000100001000
0100001000000010000000100010000000010000000000100010000001000001000000
1000000100000000100000000000100000100000000000000000000000000010000100
0100010000010000000010001000100000000001000000011110001000010001000010
0010001000100000100010001000100001000010010000100010000010001000100000
0100001000001000000100001000000100000000100010000001000100000001000001
0000000001000001000001000000000000000000000000000000101000000000001010
0000000001000100000000001010000000000101000000000000111111100000000010
1000000011000110000000000100000000000010001000000000100000010001100000
0111101000000000001000100000000000000000000000000010000000000000100010
0000000000111000001111111000111111100001111000000000010000011110000000
1110000000010000000011100000011100000010000100000001000000000000010000
0000010000000000111000000100000100011111000000011110000111100000011111
1000100000000001111000010000010001000111000001000001000111111000100000
1000100000100000111000001000000000001111000001000001000011110000000010
0000000111000000000100000000001000100000010000010000001000000111111000
1110000000001000111000000000000000000000000000011111000111100000001111
0000011110000111100000010000000000100010000100010000100010001000011000
1000100010001000010000011000001111000000011110001000000011110000000111
0000111110000001000000001000100000100000100000010000011111000000110001
0001100000000000000000000000000000000110000000000001000000000001111100
0000000011000000000000110000000000000000000000000000110000000000111000
0000000000000000000000000000000000000000000000000000000000000000000000
0000000000000000000000000000000000100000000000000000000000000000000000
0000000000000000000000000000000000000000000000000000000000000000000000
0000000000000000000000000001000000000000000000000000000000000000000000
0000000000000000000000000000000000000000000000000000000000000000000000
0000000000000000000000000000000000000000000000000000000000000000000000
0000000000000000000000011100000000000000000000000000000000000000000000
0000000000000000000000000000000000000000000000000000000000000000000000
0000000000000011111110000000000000000000000000000000000000000000000000
0000000000000000001000000000000000001000000000000000000000000000000000
0000000000000010000000000000100000000000000000000000000000000000000000
0000000000000000000000000000000100000000000000000000000000000000000000
0000000000000000000000000000000000000000000000000000000000000000000000
0000000000000000000000000000000000000000000000000000000000000000000000
0000000000000000000000000000000000000000000000000000000000000000000000
0000000000000000010000000000000000000000000000000000000000000000000000
0000000000000000000000000000000000000000000000000000000000000000000000
0000000000100000000000000000000000000000000000000000000000000000000000
0000000000000000000000000000000000000000000000000000000000000000000000
0000000000000000000000000000000000000000000000000000000000000000000000
0000000000000000000000000000000000000000000000000000000000000000000000
0000000000000000000000000000000000000000000000000000000000000000000000
0000000000000000000000000000000000000000000000000000000000000000000000
0100000000000000000010000000000000000000000000000000000000000000000010
0000000000001000000000000000000000000000000000000000000000000000000000
0000000000000001000000000000000000000000000000000000000000000000000000
0000000000000000000000000000000000000000000000000000000000000000000000
0000000000000000000000000000000000000000000000000000000000000000000000
0000000000000000000000000000000000000000000000000000000000000000000000
0100000000000000000000000000000000000000000000000000000000000000000000
0000000000000000000000000000000000000000000000000000000000000000100000
0000000000000000000000000000000000000000000000000000000000000000000000
0000000000000000000000000000000000000000000000000000000000000000000000
0000000000000000000000000000000000000000000000000000000000000000000000
0000000000000000000000000000000000000000000000000000000000000000000000
0000000000000000000000000000000000000000000000000000000000000000000000
0000000000000000000000000000000000000000000000000000111000000000000000
0011000000000000000000000000000000000000000000000000100000000000001000
0000000000000000000000000000000000000000000000000000000000000000000110
0000000000000000000000000000000000000000000000000000000000000000000000
0000000000000000000000000000000000000000000000000000000000000000000000
000000000000000000000000