P1
# Created by GIMP version 3.0.2 PNM plug-in
24 8
0111110011011000001000001100010010011000011100001000010010000000111110
0011000100100010000010000001111100111110000010000000000000000000000000
0000000000000000000000000000000000000000000000000000