P1
# Created by GIMP version 3.0.4 PNM plug-in
24 8
0001111100011011001000000011000100010011011100000010000100010000111110
0000110001000100010010000000011111000111110010000000000000000000000000
0000000000000000000000000000000000000000000000000000